<svg width="25" height="24" viewBox="0 0 25 24" fill="none" xmlns="http://www.w3.org/2000/svg">
<path d="M7 23C7.55228 23 8 22.5523 8 22C8 21.4477 7.55228 21 7 21C6.44772 21 6 21.4477 6 22C6 22.5523 6.44772 23 7 23Z" stroke="white" stroke-width="2" stroke-linecap="round" stroke-linejoin="round"/>
<path d="M18 23C18.5523 23 19 22.5523 19 22C19 21.4477 18.5523 21 18 21C17.4477 21 17 21.4477 17 22C17 22.5523 17.4477 23 18 23Z" stroke="white" stroke-width="2" stroke-linecap="round" stroke-linejoin="round"/>
<path d="M1.0498 3.04999H3.0498L5.7098 15.47C5.80738 15.9248 6.06048 16.3315 6.42552 16.6198C6.79056 16.9082 7.24471 17.0603 7.7098 17.05H17.4898C17.945 17.0493 18.3863 16.8933 18.7408 16.6078C19.0954 16.3224 19.3419 15.9245 19.4398 15.48L21.0898 8.04999H4.1198" stroke="white" stroke-width="2" stroke-linecap="round" stroke-linejoin="round"/>
<circle cx="20" cy="5" r="5" fill="#FB0F0F"/>
<path d="M19.011 2.63636V7H17.8263V3.72727H17.8008L16.8462 4.2983V3.29261L17.9201 2.63636H19.011ZM21.8075 7.11932C21.4112 7.1179 21.0689 7.02628 20.7805 6.84446C20.4922 6.66264 20.2699 6.40057 20.1136 6.05824C19.9574 5.71591 19.88 5.3054 19.8814 4.8267C19.8828 4.34659 19.9609 3.93892 20.1158 3.60369C20.272 3.26847 20.4936 3.01349 20.7805 2.83878C21.0689 2.66406 21.4112 2.5767 21.8075 2.5767C22.2038 2.5767 22.5462 2.66477 22.8345 2.84091C23.1229 3.01562 23.3452 3.2706 23.5014 3.60582C23.6577 3.94105 23.7351 4.34801 23.7337 4.8267C23.7337 5.30824 23.6555 5.72017 23.4993 6.0625C23.343 6.40483 23.1207 6.6669 22.8324 6.84872C22.5455 7.02912 22.2038 7.11932 21.8075 7.11932ZM21.8075 6.15625C22.0121 6.15625 22.1797 6.04972 22.3104 5.83665C22.4425 5.62216 22.5078 5.28551 22.5064 4.8267C22.5064 4.52699 22.4766 4.28196 22.4169 4.09162C22.3572 3.90128 22.2749 3.76065 22.1697 3.66974C22.0646 3.57741 21.9439 3.53125 21.8075 3.53125C21.603 3.53125 21.4361 3.63494 21.3068 3.84233C21.1776 4.04972 21.1115 4.37784 21.1087 4.8267C21.1072 5.1321 21.1364 5.38352 21.196 5.58097C21.2557 5.77699 21.3381 5.92188 21.4432 6.01562C21.5497 6.10938 21.6712 6.15625 21.8075 6.15625Z" fill="white"/>
</svg>
