<svg viewBox="0 0 203 28" fill="none" xmlns="http://www.w3.org/2000/svg">
<g clip-path="url(#clip0_11_907)">
<g clip-path="url(#clip1_11_907)">
<path d="M8.39994 28.0002C3.76099 28.0002 0 24.2392 0 19.6002V8.39994C0 3.76099 3.76099 0 8.39994 0H19.6002C24.2392 0 28.0002 3.76099 28.0002 8.39994V19.6002C28.0002 24.2392 24.2392 28.0002 19.6002 28.0002H8.39994Z" fill="#FF8A01"/>
<g clip-path="url(#clip2_11_907)">
<g clip-path="url(#clip3_11_907)">
<path d="M19.0466 5.59998V21.2726L18.2948 22.0244V6.35176H9.57999L10.3318 5.59998H19.0466ZM8.95361 6.9778H17.6688V22.4H8.95361V6.9778ZM13.875 20.6794C13.877 20.5895 13.861 20.5001 13.8279 20.4164C13.7949 20.3327 13.7454 20.2565 13.6825 20.1922C13.6196 20.1279 13.5445 20.0768 13.4615 20.0419C13.3786 20.0071 13.2895 19.9891 13.1996 19.9892C13.1096 19.9892 13.0205 20.0072 12.9376 20.0421C12.8547 20.077 12.7796 20.1281 12.7167 20.1924C12.6538 20.2568 12.6044 20.333 12.5714 20.4167C12.5384 20.5004 12.5224 20.5898 12.5244 20.6798C12.5284 20.8563 12.6013 21.0242 12.7275 21.1476C12.8538 21.2711 13.0233 21.3401 13.1999 21.3401C13.3764 21.3401 13.546 21.2709 13.6722 21.1474C13.7983 21.0239 13.8712 20.8559 13.875 20.6794ZM10.0647 18.4798H16.7611V8.06533H10.0647V18.4798Z" fill="white"/>
</g>
</g>
</g>
</g>
<path d="M38.6973 22.9893H32.2197V20.3262H33.3535V12.8027H32.2197V10.4473L37.5635 9.90234V11.3965C37.8623 10.9805 38.249 10.6289 38.7236 10.3418C39.1982 10.0488 39.7549 9.90234 40.3936 9.90234C41.2314 9.90234 41.9463 10.1191 42.5381 10.5527C43.1299 10.9863 43.5723 11.5693 43.8652 12.3018C44.1641 13.0342 44.3135 13.8486 44.3135 14.7451C44.3135 15.6357 44.167 16.459 43.874 17.2148C43.5811 17.959 43.1357 18.5537 42.5381 18.999C41.9463 19.4385 41.2256 19.6582 40.376 19.6582C39.7842 19.6582 39.2451 19.5439 38.7588 19.3154C38.2783 19.0811 37.8799 18.7939 37.5635 18.4541V20.3438H38.6973V22.9893ZM38.8291 17.0918C39.3564 17.0918 39.7461 16.8809 39.998 16.459C40.25 16.0371 40.376 15.4834 40.376 14.7979C40.376 14.0947 40.2383 13.5322 39.9629 13.1104C39.6875 12.6885 39.3271 12.4775 38.8818 12.4775C38.583 12.4775 38.3135 12.5537 38.0732 12.7061C37.833 12.8525 37.6631 13.0459 37.5635 13.2861V16.3359C37.8271 16.8398 38.249 17.0918 38.8291 17.0918ZM51.9951 19.5H45.7988V16.8545H46.915V8.75098H45.7988V6.36035L51.1426 5.78027V11.458C51.3711 11.0361 51.7695 10.6729 52.3379 10.3682C52.9121 10.0576 53.5479 9.90234 54.2451 9.90234C55.2646 9.90234 56.0352 10.2041 56.5566 10.8076C57.0781 11.4053 57.3389 12.2461 57.3389 13.3301V16.8545H58.4551V19.5H53.1025V13.7607C53.1025 13.4092 53 13.1191 52.7949 12.8906C52.5957 12.6621 52.3643 12.5479 52.1006 12.5479C51.8018 12.5479 51.5674 12.6504 51.3975 12.8555C51.2275 13.0605 51.1426 13.3359 51.1426 13.6816V16.8545H51.9951V19.5ZM64.5811 19.6582C63.5146 19.6582 62.5859 19.4619 61.7949 19.0693C60.9922 18.6826 60.3682 18.1143 59.9229 17.3643C59.4775 16.6143 59.2549 15.7236 59.2549 14.6924C59.2549 13.667 59.4775 12.7969 59.9229 12.082C60.3682 11.3613 60.9922 10.8193 61.7949 10.4561C62.5977 10.0869 63.5264 9.90234 64.5811 9.90234C65.665 9.90234 66.6055 10.0898 67.4023 10.4648C68.2051 10.8398 68.8262 11.3848 69.2656 12.0996C69.7051 12.8086 69.9248 13.6729 69.9248 14.6924C69.9248 15.7236 69.7051 16.6143 69.2656 17.3643C68.8203 18.1143 68.1934 18.6855 67.3848 19.0781C66.582 19.4648 65.6475 19.6582 64.5811 19.6582ZM64.5811 17.0918C64.9678 17.0918 65.2549 16.9014 65.4424 16.5205C65.624 16.1514 65.7148 15.542 65.7148 14.6924C65.7148 13.9131 65.624 13.3506 65.4424 13.0049C65.2666 12.6533 64.9795 12.4775 64.5811 12.4775C64.2002 12.4775 63.9189 12.6533 63.7373 13.0049C63.5557 13.3506 63.4648 13.9131 63.4648 14.6924C63.4648 15.5244 63.5586 16.1338 63.7461 16.5205C63.9336 16.9014 64.2119 17.0918 64.5811 17.0918ZM83.0205 13.5234V16.96H84.2422V19.5H78.8018V13.5059C78.8018 13.2539 78.7197 13.0312 78.5557 12.8379C78.3975 12.6445 78.2041 12.5479 77.9756 12.5479C77.5479 12.5479 77.2783 12.7617 77.167 13.1895C77.0498 13.6289 76.9912 14.2441 76.9912 15.0352V16.96H77.0088V19.5H71.5156V16.96H72.79V12.8027H71.5156V10.4297L76.9912 9.90234V11.2207C77.3955 10.7402 77.8555 10.4004 78.3711 10.2012C78.8867 10.002 79.4697 9.90234 80.1201 9.90234C82.0537 9.90234 83.0205 11.1094 83.0205 13.5234ZM90.3857 19.6582C89.2959 19.6582 88.3496 19.4561 87.5469 19.0518C86.7383 18.6533 86.1172 18.082 85.6836 17.3379C85.2559 16.5938 85.042 15.7236 85.042 14.7275C85.042 13.7432 85.2529 12.8877 85.6748 12.1611C86.0908 11.4404 86.6797 10.8838 87.4414 10.4912C88.2031 10.0986 89.0967 9.90234 90.1221 9.90234C91.0654 9.90234 91.8975 10.0869 92.6182 10.4561C93.3389 10.8311 93.8955 11.3613 94.2881 12.0469C94.6865 12.7324 94.8857 13.5322 94.8857 14.4463C94.8857 14.7627 94.8389 15.0615 94.7451 15.3428H89.2695C89.2695 15.8936 89.4775 16.3359 89.8936 16.6699C90.3096 16.998 90.8105 17.1621 91.3965 17.1621C91.8418 17.1621 92.3311 17.0859 92.8643 16.9336C93.3975 16.7754 93.9336 16.5322 94.4727 16.2041L94.6221 16.2568V18.6211C94.0186 18.9668 93.3975 19.2275 92.7588 19.4033C92.126 19.5732 91.335 19.6582 90.3857 19.6582ZM89.2695 13.541V13.7959H91.5195V13.6113C91.5195 13.1953 91.4229 12.8379 91.2295 12.5391C91.042 12.2344 90.7607 12.082 90.3857 12.082C90.0752 12.082 89.8115 12.2373 89.5947 12.5479C89.3779 12.8525 89.2695 13.1836 89.2695 13.541ZM101.372 19.6582C100.171 19.6582 99.1074 19.3418 98.1816 18.709L97.8916 19.5H96.2568V16.0283H98.2168C98.293 16.4736 98.501 16.8721 98.8408 17.2236C99.1807 17.5752 99.5732 17.751 100.019 17.751C100.188 17.751 100.335 17.7041 100.458 17.6104C100.587 17.5166 100.651 17.3613 100.651 17.1445C100.651 16.9277 100.528 16.7314 100.282 16.5557C100.03 16.374 99.6553 16.166 99.1572 15.9316C98.5537 15.6328 98.0615 15.3604 97.6807 15.1143C97.2939 14.8682 96.96 14.5459 96.6787 14.1475C96.3975 13.7432 96.2568 13.2598 96.2568 12.6973C96.2568 12.1172 96.4473 11.6133 96.8281 11.1855C97.209 10.7637 97.71 10.4443 98.3311 10.2275C98.9521 10.0107 99.6289 9.90234 100.361 9.90234C101.316 9.90234 102.204 10.1543 103.024 10.6582L103.244 10.0869H104.703V12.8906H103.007C102.86 12.5098 102.649 12.2109 102.374 11.9941C102.099 11.7773 101.776 11.6689 101.407 11.6689C100.974 11.6689 100.757 11.8066 100.757 12.082C100.763 12.2695 100.877 12.4307 101.1 12.5654C101.322 12.6943 101.683 12.8701 102.181 13.0928C102.491 13.2217 102.775 13.3506 103.033 13.4795C103.291 13.6084 103.522 13.7314 103.728 13.8486C104.138 14.0889 104.495 14.4287 104.8 14.8682C105.104 15.3018 105.257 15.8438 105.257 16.4941C105.257 17.1855 105.078 17.7656 104.721 18.2344C104.363 18.709 103.889 19.0664 103.297 19.3066C102.705 19.541 102.063 19.6582 101.372 19.6582ZM114.564 19.6582C114.025 19.6582 113.536 19.5469 113.097 19.3242C112.663 19.0957 112.294 18.8174 111.989 18.4893L111.655 19.5H107.709V8.75098H106.575V6.36035L111.919 5.78027V11.0186C112.376 10.6494 112.851 10.3711 113.343 10.1836C113.835 9.99609 114.304 9.90234 114.749 9.90234C115.581 9.90234 116.299 10.1191 116.902 10.5527C117.494 10.9863 117.937 11.5723 118.229 12.3105C118.522 13.0488 118.669 13.8662 118.669 14.7627C118.669 15.7061 118.517 16.5439 118.212 17.2764C117.907 18.0146 117.444 18.5977 116.823 19.0254C116.208 19.4473 115.455 19.6582 114.564 19.6582ZM113.29 17.0918C113.712 17.0918 114.061 16.8838 114.336 16.4678C114.611 16.0518 114.749 15.5684 114.749 15.0176C114.749 14.332 114.629 13.7373 114.389 13.2334C114.148 12.7295 113.782 12.4775 113.29 12.4775C113.015 12.4775 112.745 12.5391 112.481 12.6621C112.218 12.7793 112.03 12.9111 111.919 13.0576V16.6523C112.054 16.7637 112.253 16.8662 112.517 16.96C112.78 17.0479 113.038 17.0918 113.29 17.0918ZM123.828 19.6582C121.941 19.6582 120.998 18.4775 120.998 16.1162V12.8027H119.864V10.4297L125.208 9.90234V16.1162C125.208 16.3447 125.293 16.5557 125.463 16.749C125.633 16.9365 125.832 17.0303 126.061 17.0303C126.324 17.0303 126.529 16.9424 126.676 16.7666C126.828 16.585 126.904 16.3623 126.904 16.0986V12.8027H126.061V10.4297L131.114 9.90234V16.8545H132.248V19.5H126.904V18.1289C126.594 18.6094 126.178 18.9844 125.656 19.2539C125.141 19.5234 124.531 19.6582 123.828 19.6582ZM140.747 16.8545V19.5H133.637V16.8545H135.184V8.75098H133.637V6.36035L139.394 5.78027V16.8545H140.747ZM152.691 12.8027L151.18 14.0684L152.999 16.8545H154.379V19.5H150.187L147.611 15.6504V19.5H141.854V16.8545H143.401V8.75098H141.854V6.36035L147.611 5.78027V14.332L149.448 12.8027H148.481V10.0869H154.098V12.8027H152.691ZM157.35 19.7549C156.67 19.7549 156.09 19.5498 155.609 19.1396C155.152 18.7588 154.924 18.2256 154.924 17.54C154.924 16.8662 155.152 16.3447 155.609 15.9756C156.072 15.5771 156.652 15.3779 157.35 15.3779C158.105 15.3779 158.718 15.5771 159.187 15.9756C159.655 16.374 159.89 16.8955 159.89 17.54C159.89 18.1963 159.649 18.7295 159.169 19.1396C158.683 19.5381 158.085 19.7373 157.376 19.7373L157.35 19.7549ZM166.007 19.6582C164.935 19.6582 164 19.4531 163.203 19.043C162.4 18.6387 161.776 18.0645 161.331 17.3203C160.886 16.5762 160.663 15.7002 160.663 14.6924C160.663 13.7842 160.851 12.9668 161.226 12.2402C161.595 11.5137 162.122 10.9424 162.808 10.5264C163.499 10.1104 164.302 9.90234 165.216 9.90234C165.562 9.90234 165.928 9.94629 166.314 10.0342C166.701 10.1162 167.047 10.2393 167.352 10.4033C167.662 10.5674 167.867 10.7725 167.967 11.0186L168.327 10.0869H170.243V13.9717H167.703C167.656 13.5029 167.519 13.1367 167.29 12.873C167.062 12.6094 166.777 12.4775 166.438 12.4775C165.934 12.4775 165.55 12.6387 165.286 12.9609C165.022 13.2773 164.891 13.8604 164.891 14.71C164.891 15.2959 164.996 15.7588 165.207 16.0986C165.424 16.4326 165.702 16.6729 166.042 16.8193C166.388 16.96 166.754 17.0303 167.141 17.0303C167.562 17.0303 168.02 16.957 168.512 16.8105C169.004 16.6582 169.44 16.4209 169.821 16.0986L169.953 16.1865V18.6387C169.953 18.6621 169.774 18.7617 169.417 18.9375C169.06 19.1191 168.585 19.2861 167.993 19.4385C167.401 19.585 166.739 19.6582 166.007 19.6582ZM177.081 19.6582C176.015 19.6582 175.086 19.4619 174.295 19.0693C173.492 18.6826 172.868 18.1143 172.423 17.3643C171.978 16.6143 171.755 15.7236 171.755 14.6924C171.755 13.667 171.978 12.7969 172.423 12.082C172.868 11.3613 173.492 10.8193 174.295 10.4561C175.098 10.0869 176.026 9.90234 177.081 9.90234C178.165 9.90234 179.105 10.0898 179.902 10.4648C180.705 10.8398 181.326 11.3848 181.766 12.0996C182.205 12.8086 182.425 13.6729 182.425 14.6924C182.425 15.7236 182.205 16.6143 181.766 17.3643C181.32 18.1143 180.693 18.6855 179.885 19.0781C179.082 19.4648 178.147 19.6582 177.081 19.6582ZM177.081 17.0918C177.468 17.0918 177.755 16.9014 177.942 16.5205C178.124 16.1514 178.215 15.542 178.215 14.6924C178.215 13.9131 178.124 13.3506 177.942 13.0049C177.767 12.6533 177.479 12.4775 177.081 12.4775C176.7 12.4775 176.419 12.6533 176.237 13.0049C176.056 13.3506 175.965 13.9131 175.965 14.6924C175.965 15.5244 176.059 16.1338 176.246 16.5205C176.434 16.9014 176.712 17.0918 177.081 17.0918ZM201.55 13.5234V16.96H202.771V19.5H197.34V13.5059C197.34 13.2539 197.258 13.0312 197.094 12.8379C196.93 12.6445 196.733 12.5479 196.505 12.5479C196.077 12.5479 195.808 12.7617 195.696 13.1895C195.579 13.6289 195.521 14.2441 195.521 15.0352V19.5H191.302V13.5059C191.302 13.2539 191.22 13.0312 191.056 12.8379C190.897 12.6445 190.704 12.5479 190.476 12.5479C190.048 12.5479 189.778 12.7617 189.667 13.1895C189.55 13.6289 189.491 14.2441 189.491 15.0352V16.96H189.509V19.5H184.016V16.96H185.29V12.8027H184.016V10.4297L189.491 9.90234V11.2207C189.896 10.7402 190.355 10.4004 190.871 10.2012C191.387 10.002 191.97 9.90234 192.62 9.90234C193.95 9.90234 194.82 10.4678 195.23 11.5986C195.664 10.9834 196.162 10.5469 196.725 10.2891C197.287 10.0312 197.929 9.90234 198.649 9.90234C200.583 9.90234 201.55 11.1094 201.55 13.5234Z" fill="white"/>
<defs>
<clipPath id="clip0_11_907">
<rect width="28" height="28" fill="white"/>
</clipPath>
<clipPath id="clip1_11_907">
<rect width="28" height="28" fill="white"/>
</clipPath>
<clipPath id="clip2_11_907">
<rect width="10.093" height="16.8" fill="white" transform="translate(8.95361 5.59998)"/>
</clipPath>
<clipPath id="clip3_11_907">
<rect width="10.093" height="16.8" fill="white" transform="translate(8.95361 5.59998)"/>
</clipPath>
</defs>
</svg>
