<svg width="57" height="60" viewBox="0 0 57 60" fill="none" xmlns="http://www.w3.org/2000/svg">
<path d="M28.125 0C12.5625 0 0 12.5625 0 28.125C0 34.5 2.0625 40.5 6 45.375L2.0625 57.375C1.875 58.125 2.0625 58.875 2.625 59.4375C2.8125 59.8125 3.375 60 3.75 60C3.9375 60 4.3125 60 4.5 59.8125L17.4375 54C20.8125 55.5 24.375 56.25 28.125 56.25C43.6875 56.25 56.25 43.6875 56.25 28.125C56.25 12.5625 43.6875 0 28.125 0Z" fill="#25D366"/>
<path d="M44.4375 38.4375C43.6875 40.6875 40.875 42.5625 38.4375 42.9375C37.875 43.125 37.3125 43.125 36.5625 43.125C35.0625 43.125 32.8125 42.75 28.875 41.0625C24.375 39.1875 19.875 35.25 16.3125 30.1875V30C15.1875 28.3125 13.125 25.125 13.125 21.75C13.125 17.625 15.1875 15.5625 15.9375 14.625C16.875 13.6875 18.1875 13.125 19.6875 13.125C20.0625 13.125 20.25 13.125 20.625 13.125C21.9375 13.125 22.875 13.5 23.8125 15.375L24.5625 16.875C25.125 18.375 25.875 20.0625 26.0625 20.25C26.625 21.375 26.625 22.3125 26.0625 23.25C25.875 23.8125 25.5 24.1875 25.125 24.5625C24.9375 24.9375 24.75 25.125 24.5625 25.125C24.375 25.3125 24.375 25.3125 24.1875 25.5C24.75 26.4375 25.875 28.125 27.375 29.4375C29.625 31.5 31.3125 32.0625 32.25 32.4375C32.625 32.0625 33 31.3125 33.5625 30.75L33.75 30.375C34.6875 29.0625 36.1875 28.6875 37.6875 29.25C38.4375 29.625 42.5625 31.5 42.5625 31.5L42.9375 31.6875C43.5 32.0625 44.25 32.25 44.625 33C45.375 34.6875 44.8125 37.125 44.4375 38.4375Z" fill="white"/>
</svg>
