<svg width="10" height="14" viewBox="0 0 10 14" fill="none" xmlns="http://www.w3.org/2000/svg">
<path d="M2.95835 8.0625C3.34513 8.0625 3.71606 7.89788 3.98955 7.60485C4.26304 7.31183 4.41669 6.9144 4.41669 6.5C4.41669 5.6375 4.12502 5.25 3.83335 4.625C3.20802 3.28563 3.70269 2.09125 5.00002 0.875C5.29169 2.4375 6.16669 3.9375 7.33335 4.9375C8.50002 5.9375 9.08336 7.125 9.08336 8.375C9.08336 8.94953 8.97774 9.51844 8.77253 10.0492C8.56732 10.58 8.26655 11.0623 7.88737 11.4686C7.5082 11.8748 7.05806 12.1971 6.56265 12.417C6.06723 12.6368 5.53625 12.75 5.00002 12.75C4.46379 12.75 3.93281 12.6368 3.4374 12.417C2.94198 12.1971 2.49184 11.8748 2.11267 11.4686C1.7335 11.0623 1.43272 10.58 1.22751 10.0492C1.02231 9.51844 0.916687 8.94953 0.916687 8.375C0.916687 7.65438 1.16927 6.94125 1.50002 6.5C1.50002 6.9144 1.65367 7.31183 1.92716 7.60485C2.20065 7.89788 2.57158 8.0625 2.95835 8.0625Z" stroke="#FF8A01" stroke-linecap="round" stroke-linejoin="round"/>
</svg>
