<svg width="36" height="36" viewBox="0 0 36 36" fill="none" xmlns="http://www.w3.org/2000/svg">
<path d="M33 11.5501C33 10.6501 32.4 9.7501 31.8 9.3001L22.35 3.4501C21.9614 3.22919 21.522 3.11304 21.075 3.11304C20.628 3.11304 20.1886 3.22919 19.8 3.4501L4.35 12.4501C3.6 12.7501 3 13.6501 3 14.5501V24.4501C3 25.2001 3.6 26.2501 4.2 26.7001L13.65 32.5501C14.0386 32.771 14.478 32.8872 14.925 32.8872C15.372 32.8872 15.8114 32.771 16.2 32.5501L31.65 23.5501C32.4 23.1001 33 22.0501 33 21.3001V11.5501Z" stroke="black" stroke-width="2" stroke-linecap="round" stroke-linejoin="round"/>
<path d="M14.9999 32.8499V20.9999L3.1499 13.6499" stroke="black" stroke-width="2" stroke-linecap="round" stroke-linejoin="round"/>
<path d="M15 20.9999L32.85 10.6499" stroke="black" stroke-width="2" stroke-linecap="round" stroke-linejoin="round"/>
<path d="M21 29.7V17.55" stroke="black" stroke-width="2" stroke-linecap="round" stroke-linejoin="round"/>
<path d="M27 26.2501V14.1001" stroke="black" stroke-width="2" stroke-linecap="round" stroke-linejoin="round"/>
</svg>
