<svg width="22" height="22" viewBox="0 0 22 22" fill="none" xmlns="http://www.w3.org/2000/svg">
<g clip-path="url(#clip0_9_2134)">
<path d="M1.8335 6.41659L5.876 2.37409C6.04655 2.20251 6.24937 2.0664 6.47278 1.97357C6.69618 1.88075 6.93574 1.83306 7.17766 1.83325H14.8227C15.0646 1.83306 15.3041 1.88075 15.5276 1.97357C15.751 2.0664 15.9538 2.20251 16.1243 2.37409L20.1668 6.41659" stroke="#F2F2F2" stroke-width="2" stroke-linecap="round" stroke-linejoin="round"/>
<path d="M3.6665 11V18.3333C3.6665 18.8196 3.85966 19.2859 4.20347 19.6297C4.54729 19.9735 5.01361 20.1667 5.49984 20.1667H16.4998C16.9861 20.1667 17.4524 19.9735 17.7962 19.6297C18.14 19.2859 18.3332 18.8196 18.3332 18.3333V11" stroke="#F2F2F2" stroke-width="2" stroke-linecap="round" stroke-linejoin="round"/>
<path d="M13.75 20.1667V16.5001C13.75 16.0139 13.5568 15.5475 13.213 15.2037C12.8692 14.8599 12.4029 14.6667 11.9167 14.6667H10.0833C9.5971 14.6667 9.13079 14.8599 8.78697 15.2037C8.44315 15.5475 8.25 16.0139 8.25 16.5001V20.1667" stroke="#F2F2F2" stroke-width="2" stroke-linecap="round" stroke-linejoin="round"/>
<path d="M1.8335 6.41675H20.1668" stroke="#F2F2F2" stroke-width="2" stroke-linecap="round" stroke-linejoin="round"/>
<path d="M20.1668 6.41675V9.16675C20.1668 9.65298 19.9737 10.1193 19.6299 10.4631C19.286 10.8069 18.8197 11.0001 18.3335 11.0001C17.7979 10.9706 17.2864 10.7679 16.876 10.4226C16.7666 10.3435 16.6351 10.301 16.5002 10.301C16.3652 10.301 16.2337 10.3435 16.1243 10.4226C15.7139 10.7679 15.2024 10.9706 14.6668 11.0001C14.1313 10.9706 13.6197 10.7679 13.2093 10.4226C13.1 10.3435 12.9684 10.301 12.8335 10.301C12.6986 10.301 12.567 10.3435 12.4577 10.4226C12.0472 10.7679 11.5357 10.9706 11.0002 11.0001C10.4646 10.9706 9.95308 10.7679 9.54266 10.4226C9.43329 10.3435 9.30178 10.301 9.16683 10.301C9.03188 10.301 8.90037 10.3435 8.791 10.4226C8.38058 10.7679 7.86907 10.9706 7.3335 11.0001C6.79792 10.9706 6.28642 10.7679 5.876 10.4226C5.76662 10.3435 5.63511 10.301 5.50016 10.301C5.36522 10.301 5.23371 10.3435 5.12433 10.4226C4.71391 10.7679 4.20241 10.9706 3.66683 11.0001C3.1806 11.0001 2.71428 10.8069 2.37047 10.4631C2.02665 10.1193 1.8335 9.65298 1.8335 9.16675V6.41675" stroke="#F2F2F2" stroke-width="2" stroke-linecap="round" stroke-linejoin="round"/>
</g>
<defs>
<clipPath id="clip0_9_2134">
<rect width="22" height="22" fill="white"/>
</clipPath>
</defs>
</svg>
