<svg width="36" height="36" viewBox="0 0 36 36" fill="none" xmlns="http://www.w3.org/2000/svg">
<path d="M18 1.43995C8.86286 1.43995 1.44 8.86281 1.44 17.9999C1.44 20.9369 2.24546 23.6778 3.58876 26.0704L1.46672 33.6459C1.39773 33.8926 1.46499 34.1573 1.64334 34.3412C1.8217 34.5251 2.0843 34.6003 2.33297 34.5388L10.2319 32.5813C12.5529 33.8205 15.1867 34.5599 18 34.5599C27.1371 34.5599 34.56 27.1371 34.56 17.9999C34.56 8.8628 27.1371 1.43995 18 1.43995ZM18 2.87995C26.3589 2.87995 33.12 9.64109 33.12 17.9999C33.12 26.3588 26.3589 33.1199 18 33.1199C15.3202 33.1199 12.8103 32.4213 10.6284 31.2004C10.4689 31.1112 10.2813 31.0861 10.1039 31.1301L3.18656 32.8443L5.04141 26.2265C5.09504 26.0375 5.06913 25.8348 4.96969 25.6654C3.64369 23.4169 2.88 20.8008 2.88 17.9999C2.88 9.64108 9.64114 2.87995 18 2.87995ZM11.9827 9.35995C11.5211 9.35995 10.862 9.53166 10.3205 10.1151C9.99524 10.4655 8.64001 11.786 8.64001 14.1074C8.64001 16.5277 10.3186 18.6162 10.5216 18.8845H10.523V18.8859C10.5037 18.8606 10.7806 19.2615 11.1502 19.7423C11.5197 20.2231 12.0365 20.8545 12.6858 21.5381C13.9843 22.9052 15.81 24.4853 18.0759 25.4517C19.1195 25.896 19.9427 26.1643 20.5664 26.3601C21.7223 26.7231 22.7751 26.6679 23.5659 26.5514C24.1579 26.4642 24.809 26.18 25.4531 25.7723C26.0973 25.3646 26.7286 24.8578 27.007 24.0876C27.2065 23.5355 27.3079 23.0253 27.3445 22.6054C27.3629 22.3955 27.3652 22.2102 27.3516 22.0387C27.3379 21.8672 27.3525 21.7358 27.1927 21.4734C26.8574 20.923 26.4778 20.9086 26.0817 20.7126C25.8616 20.6037 25.235 20.2977 24.6066 19.9982C23.9788 19.6991 23.4352 19.4342 23.1005 19.3148C22.889 19.2387 22.6307 19.1292 22.2581 19.1714C21.8855 19.2136 21.5175 19.4824 21.3033 19.8C21.1002 20.101 20.2827 21.066 20.0334 21.3496C20.0301 21.3476 20.0518 21.3576 19.9533 21.3089C19.645 21.1563 19.268 21.0266 18.7102 20.7323C18.1523 20.438 17.4544 20.0034 16.6908 19.3303V19.3289C15.5542 18.3282 14.758 17.0719 14.5069 16.65C14.5238 16.6298 14.5049 16.6542 14.5406 16.619L14.542 16.6176C14.7987 16.3648 15.0262 16.0628 15.2184 15.8414C15.491 15.5274 15.6113 15.2506 15.7416 14.992C16.0012 14.4766 15.8566 13.9095 15.7064 13.6111V13.6096C15.7168 13.6303 15.6251 13.4281 15.5264 13.1948C15.4274 12.9609 15.3012 12.6576 15.1664 12.3342C14.8968 11.6874 14.5958 10.9619 14.4169 10.537V10.5356C14.206 10.0351 13.9208 9.67455 13.5478 9.50059C13.1748 9.32664 12.8453 9.3761 12.832 9.37544H12.8306C12.5645 9.36316 12.2724 9.35995 11.9827 9.35995ZM11.9827 10.7999C12.2602 10.7999 12.5339 10.8033 12.7631 10.814C12.9989 10.8258 12.9843 10.8267 12.9389 10.8056C12.8928 10.7841 12.9553 10.7771 13.0894 11.0953C13.2646 11.5113 13.5671 12.2394 13.8375 12.8882C13.9727 13.2126 14.0992 13.5171 14.2003 13.7559C14.3014 13.9947 14.3561 14.128 14.4197 14.2551V14.2565L14.4211 14.2579C14.4834 14.3808 14.4779 14.3021 14.4562 14.3451C14.3043 14.6466 14.2837 14.7207 14.13 14.8977C13.896 15.1673 13.6573 15.468 13.5309 15.5924C13.4204 15.701 13.2209 15.8702 13.0964 16.2013C12.9717 16.533 13.0299 16.988 13.23 17.3277C13.4964 17.78 14.3744 19.209 15.7388 20.4102C16.598 21.1677 17.3985 21.669 18.038 22.0063C18.6775 22.3437 19.1983 22.5407 19.3149 22.5984C19.5916 22.7353 19.8941 22.8417 20.2458 22.7995C20.5975 22.7572 20.9007 22.5438 21.0938 22.3256L21.0952 22.3242C21.3521 22.0329 22.1154 21.1613 22.4817 20.624C22.4972 20.6295 22.4922 20.6252 22.6139 20.669V20.6704H22.6153C22.6709 20.6902 23.3671 21.0018 23.9878 21.2976C24.6085 21.5934 25.2386 21.9008 25.4433 22.0021C25.7387 22.1483 25.8783 22.2435 25.9144 22.244C25.9168 22.3073 25.9193 22.376 25.9102 22.4803C25.8849 22.7694 25.8076 23.1697 25.6528 23.5982C25.577 23.808 25.182 24.2407 24.6839 24.5559C24.1858 24.8711 23.5795 25.0938 23.355 25.1268C22.6799 25.2263 21.8784 25.2626 20.9981 24.9862C20.3878 24.7946 19.6267 24.5466 18.6412 24.127C16.6427 23.2746 14.944 21.8242 13.7306 20.5467C13.1239 19.9079 12.6378 19.3132 12.292 18.8634C11.9469 18.4144 11.7961 18.1807 11.6705 18.0154L11.6691 18.014C11.446 17.719 10.08 15.819 10.08 14.1074C10.08 12.2961 10.9213 11.5858 11.3766 11.0953C11.6156 10.8377 11.8768 10.7999 11.9827 10.7999Z" fill="#757575"/>
</svg>
