<svg width="30" height="30" viewBox="0 0 30 30" fill="none" xmlns="http://www.w3.org/2000/svg">
<path d="M23.7 25.8L21 13.5L26.25 8.25C28.5 6 29.25 3 28.5 1.5C27 0.75 24 1.5 21.75 3.75L16.5 9L4.2 6.3C3.45 6.15 2.85 6.45 2.55 7.05L2.1 7.8C1.8 8.55 1.95 9.3 2.55 9.75L10.5 15L7.5 19.5H3L1.5 21L6 24L9 28.5L10.5 27V22.5L15 19.5L20.25 27.45C20.7 28.05 21.45 28.2 22.2 27.9L22.95 27.6C23.55 27.15 23.85 26.55 23.7 25.8Z" stroke="#2F2F2F" stroke-width="2" stroke-linecap="round" stroke-linejoin="round"/>
</svg>
