<svg width="11" height="13" viewBox="0 0 11 13" fill="none" xmlns="http://www.w3.org/2000/svg">
<path d="M6.87502 3.18498L6.41669 5.41665H9.08877C9.23108 5.41665 9.37143 5.4558 9.49872 5.53102C9.626 5.60623 9.73672 5.71543 9.8221 5.84998C9.90749 5.98453 9.96519 6.14072 9.99065 6.30619C10.0161 6.47166 10.0086 6.64186 9.96877 6.80331L8.90085 11.1366C8.84532 11.3617 8.72953 11.5593 8.57085 11.7C8.41218 11.8406 8.21919 11.9166 8.02085 11.9166H1.83335C1.59024 11.9166 1.35708 11.8025 1.18517 11.5993C1.01326 11.3962 0.916687 11.1206 0.916687 10.8333V6.49998C0.916687 6.21266 1.01326 5.93711 1.18517 5.73395C1.35708 5.53078 1.59024 5.41665 1.83335 5.41665H3.09835C3.26889 5.41654 3.43602 5.36021 3.58096 5.25399C3.72589 5.14778 3.84288 4.99589 3.91877 4.8154L5.50002 1.08331C5.71616 1.08648 5.9289 1.14732 6.12235 1.2613C6.31579 1.37528 6.48495 1.53945 6.61716 1.74155C6.74938 1.94364 6.84125 2.17843 6.8859 2.42838C6.93055 2.67833 6.92683 2.93697 6.87502 3.18498Z" stroke="#A0E873" stroke-linecap="round" stroke-linejoin="round"/>
</svg>
