<svg width="36" height="36" viewBox="0 0 36 36" fill="none" xmlns="http://www.w3.org/2000/svg">
<path d="M5.77504 12.9299C5.55611 11.9437 5.58972 10.9182 5.87278 9.94841C6.15584 8.97866 6.67917 8.09607 7.39425 7.38248C8.10933 6.6689 8.99301 6.14742 9.96336 5.86639C10.9337 5.58537 11.9593 5.5539 12.945 5.7749C13.4876 4.92635 14.235 4.22804 15.1185 3.74433C16.0019 3.26062 16.9929 3.00708 18 3.00708C19.0072 3.00708 19.9982 3.26062 20.8816 3.74433C21.765 4.22804 22.5125 4.92635 23.055 5.7749C24.0423 5.55294 25.0696 5.58427 26.0415 5.86597C27.0134 6.14768 27.8983 6.67061 28.6138 7.38613C29.3293 8.10165 29.8523 8.98651 30.134 9.9584C30.4157 10.9303 30.447 11.9577 30.225 12.9449C31.0736 13.4875 31.7719 14.2349 32.2556 15.1183C32.7393 16.0017 32.9929 16.9927 32.9929 17.9999C32.9929 19.0071 32.7393 19.9981 32.2556 20.8815C31.7719 21.7649 31.0736 22.5123 30.225 23.0549C30.446 24.0407 30.4146 25.0662 30.1336 26.0366C29.8525 27.0069 29.331 27.8906 28.6175 28.6057C27.9039 29.3208 27.0213 29.8441 26.0515 30.1272C25.0818 30.4102 24.0563 30.4438 23.07 30.2249C22.5282 31.0767 21.7802 31.778 20.8952 32.2639C20.0103 32.7498 19.0171 33.0045 18.0075 33.0045C16.998 33.0045 16.0048 32.7498 15.1199 32.2639C14.2349 31.778 13.4869 31.0767 12.945 30.2249C11.9593 30.4459 10.9337 30.4144 9.96336 30.1334C8.99301 29.8524 8.10933 29.3309 7.39425 28.6173C6.67917 27.9037 6.15584 27.0211 5.87278 26.0514C5.58972 25.0816 5.55611 24.0561 5.77504 23.0699C4.91998 22.5288 4.21567 21.7802 3.72762 20.8937C3.23957 20.0073 2.98364 19.0118 2.98364 17.9999C2.98364 16.988 3.23957 15.9925 3.72762 15.1061C4.21567 14.2196 4.91998 13.471 5.77504 12.9299Z" stroke="black" stroke-width="2" stroke-linecap="round" stroke-linejoin="round"/>
<path d="M24 12H15C14.2044 12 13.4413 12.3161 12.8787 12.8787C12.3161 13.4413 12 14.2044 12 15C12 15.7956 12.3161 16.5587 12.8787 17.1213C13.4413 17.6839 14.2044 18 15 18H21C21.7956 18 22.5587 18.3161 23.1213 18.8787C23.6839 19.4413 24 20.2044 24 21C24 21.7956 23.6839 22.5587 23.1213 23.1213C22.5587 23.6839 21.7956 24 21 24H12" stroke="black" stroke-width="2" stroke-linecap="round" stroke-linejoin="round"/>
<path d="M18 27V9" stroke="black" stroke-width="2" stroke-linecap="round" stroke-linejoin="round"/>
</svg>
