<svg width="36" height="36" viewBox="0 0 36 36" fill="none" xmlns="http://www.w3.org/2000/svg">
<path d="M31.9514 4.3102C31.6007 4.32559 31.2594 4.42318 30.9516 4.54646C30.6469 4.6689 28.8928 5.41758 26.3025 6.52505C23.7122 7.63253 20.345 9.07469 17.0072 10.5047C10.3315 13.3648 3.77156 16.179 3.77156 16.179L3.81937 16.1607C3.81937 16.1607 3.42344 16.293 3.02203 16.5727C2.82132 16.7126 2.6054 16.8931 2.42859 17.1563C2.25179 17.4195 2.12254 17.7925 2.17125 18.1871C2.34234 19.5729 3.77859 19.966 3.77859 19.966L3.78422 19.9688L10.1939 22.1626C10.3573 22.7077 12.138 28.651 12.5297 29.9096C12.746 30.6054 12.9485 31.0069 13.1597 31.2807C13.2654 31.4177 13.3761 31.5238 13.4986 31.6013C13.5472 31.6321 13.5984 31.6552 13.6491 31.6758C13.6501 31.6763 13.6508 31.6754 13.6519 31.6758C13.6581 31.6786 13.6639 31.6788 13.6701 31.6815L13.6533 31.6772C13.665 31.682 13.6766 31.69 13.6884 31.6941C13.7113 31.7021 13.7253 31.7019 13.7545 31.7082C14.4886 31.9645 15.0961 31.4888 15.0961 31.4888L15.1214 31.4691L19.0589 27.8171L25.4489 32.7994L25.5291 32.836C26.6475 33.3326 27.659 33.0555 28.2192 32.5998C28.7794 32.1439 28.9997 31.5563 28.9997 31.5563L29.0236 31.4944L33.7191 7.02147C33.8392 6.47395 33.8563 6.00069 33.743 5.57303C33.6296 5.14537 33.3543 4.77362 33.0089 4.56757C32.6634 4.36151 32.3021 4.29482 31.9514 4.3102ZM31.9894 5.77411C32.1318 5.76751 32.2373 5.78379 32.2706 5.80364C32.3039 5.82348 32.3188 5.82088 32.3508 5.94146C32.3827 6.06203 32.4 6.31601 32.3128 6.71349L32.31 6.72193L27.6413 31.0529C27.6302 31.0774 27.5329 31.3024 27.3108 31.4832C27.0842 31.6676 26.8321 31.8115 26.1633 31.531L19.1756 26.0818L18.9788 25.9271L18.9745 25.9313L16.8848 24.3633L28.6284 10.5469C28.8128 10.3306 28.8526 10.0261 28.7302 9.76963C28.6077 9.51315 28.3458 9.35271 28.0617 9.36007C27.9258 9.3636 27.7937 9.40553 27.6806 9.48101L10.6875 20.8098L4.26797 18.6118C4.26797 18.6118 3.63051 18.2571 3.6 18.0099C3.59831 17.9962 3.59079 18.0086 3.62391 17.9593C3.65703 17.91 3.7403 17.8267 3.84469 17.754C4.05347 17.6085 4.29187 17.5205 4.29187 17.5205L4.31578 17.5121L4.33968 17.5023C4.33968 17.5023 10.9 14.688 17.5753 11.828C20.913 10.3981 24.2796 8.95697 26.8692 7.84977C29.4582 6.74285 31.3289 5.9461 31.4873 5.88242C31.6677 5.81021 31.847 5.7807 31.9894 5.77411ZM24.2016 13.531L15.2958 24.0089L15.2916 24.0132C15.2777 24.0299 15.2645 24.0473 15.2522 24.0652C15.2381 24.0847 15.2249 24.1049 15.2128 24.1257C15.1628 24.2106 15.1307 24.3049 15.1186 24.4027C15.1186 24.4046 15.1186 24.4065 15.1186 24.4083L13.9584 29.6255C13.9391 29.5691 13.9256 29.5485 13.905 29.4821V29.4807C13.5365 28.2967 11.8565 22.6916 11.6241 21.9164L24.2016 13.531ZM16.3013 25.726L17.9016 26.9269L15.5503 29.1066L16.3013 25.726Z" fill="#757575 "/>
</svg>
